<svg width="44" height="44" viewBox="0 0 44 44" fill="none" xmlns="http://www.w3.org/2000/svg">
<g id="ig">
<path id="Vector" d="M22.0484 44.0066H21.9516C9.84762 44.0066 0 34.1561 0 22.0486V21.9517C0 9.84415 9.84762 -0.00634766 21.9516 -0.00634766H22.0484C34.1524 -0.00634766 44 9.84415 44 21.9517V22.0486C44 34.1561 34.1524 44.0066 22.0484 44.0066ZM21.9516 1.48345C10.6682 1.48345 1.48935 10.665 1.48935 21.9517V22.0486C1.48935 33.3352 10.6682 42.5168 21.9516 42.5168H22.0484C33.3318 42.5168 42.5106 33.3352 42.5106 22.0486V21.9517C42.5106 10.665 33.3318 1.48345 22.0484 1.48345H21.9516Z" fill="white"/>
<g id="Group">
<path id="Vector_2" d="M28.5776 9.39111H15.4236C11.7896 9.39111 8.83325 12.3484 8.83325 15.9834V28.0209C8.83325 31.656 11.7896 34.6133 15.4236 34.6133H28.5776C32.2116 34.6133 35.168 31.656 35.168 28.0209V15.9834C35.168 12.3484 32.2116 9.39111 28.5776 9.39111ZM11.1581 15.9834C11.1581 13.6311 13.072 11.7167 15.4236 11.7167H28.5776C30.9293 11.7167 32.8431 13.6311 32.8431 15.9834V28.0209C32.8431 30.3733 30.9293 32.2877 28.5776 32.2877H15.4236C13.072 32.2877 11.1581 30.3733 11.1581 28.0209V15.9834Z" fill="white"/>
<path id="Vector_3" d="M22.0008 28.1326C25.3801 28.1326 28.131 25.3825 28.131 22.0006C28.131 18.6188 25.3816 15.8687 22.0008 15.8687C18.62 15.8687 15.8706 18.6188 15.8706 22.0006C15.8706 25.3825 18.62 28.1326 22.0008 28.1326ZM22.0008 18.1957C24.0993 18.1957 25.8061 19.903 25.8061 22.0021C25.8061 24.1012 24.0993 25.8085 22.0008 25.8085C19.9023 25.8085 18.1955 24.1012 18.1955 22.0021C18.1955 19.903 19.9023 18.1957 22.0008 18.1957Z" fill="white"/>
<path id="Vector_4" d="M28.6983 16.859C29.6083 16.859 30.35 16.1186 30.35 15.2069C30.35 14.2951 29.6098 13.5547 28.6983 13.5547C27.7868 13.5547 27.0466 14.2951 27.0466 15.2069C27.0466 16.1186 27.7868 16.859 28.6983 16.859Z" fill="white"/>
</g>
</g>
</svg>
