<svg width="44" height="44" viewBox="0 0 44 44" fill="none" xmlns="http://www.w3.org/2000/svg">
<g id="linkeidn">
<path id="Vector" d="M22.0484 44.0066H21.9516C9.84763 44.0066 0 34.1561 0 22.0486V21.9517C0 9.84416 9.84763 -0.00634766 21.9516 -0.00634766H22.0484C34.1524 -0.00634766 44 9.84416 44 21.9517V22.0486C44 34.1561 34.1524 44.0066 22.0484 44.0066ZM21.9516 1.48344C10.6683 1.48344 1.48935 10.665 1.48935 21.9517V22.0486C1.48935 33.3352 10.6683 42.5168 21.9516 42.5168H22.0484C33.3317 42.5168 42.5106 33.3352 42.5106 22.0486V21.9517C42.5106 10.665 33.3317 1.48344 22.0484 1.48344H21.9516Z" fill="white"/>
<g id="Group">
<path id="Vector_2" d="M10.8827 14.8726C10.3227 14.3527 10.0442 13.7091 10.0442 12.9433C10.0442 12.1776 10.3242 11.5057 10.8827 10.9843C11.4427 10.4643 12.1635 10.2036 13.0467 10.2036C13.9299 10.2036 14.6225 10.4643 15.181 10.9843C15.741 11.5042 16.0195 12.1582 16.0195 12.9433C16.0195 13.7285 15.7395 14.3527 15.181 14.8726C14.621 15.3926 13.9105 15.6533 13.0467 15.6533C12.1829 15.6533 11.4427 15.3926 10.8827 14.8726ZM15.5488 17.8552V33.796H10.5133V17.8552H15.5488Z" fill="white"/>
<path id="Vector_3" d="M32.3114 19.4303C33.409 20.6222 33.9571 22.2579 33.9571 24.3407V33.5148H29.1748V24.9873C29.1748 23.937 28.9023 23.1205 28.3586 22.5395C27.815 21.9585 27.0823 21.6665 26.1648 21.6665C25.2474 21.6665 24.5146 21.957 23.971 22.5395C23.4274 23.1205 23.1548 23.937 23.1548 24.9873V33.5148H18.3442V17.8109H23.1548V19.8936C23.6418 19.1994 24.2987 18.6512 25.1238 18.2474C25.9489 17.8437 26.8767 17.6426 27.9089 17.6426C29.7467 17.6426 31.2152 18.2385 32.3114 19.4303Z" fill="white"/>
</g>
</g>
</svg>
