<svg width="44" height="44" viewBox="0 0 44 44" fill="none" xmlns="http://www.w3.org/2000/svg">
<g id="tiktok">
<path id="Vector" d="M22.0484 44.0066H21.9516C9.84761 44.0066 0 34.1561 0 22.0485V21.9517C0 9.84415 9.84761 -0.00634766 21.9516 -0.00634766H22.0484C34.1524 -0.00634766 44 9.84415 44 21.9517V22.0485C44 34.1561 34.1524 44.0066 22.0484 44.0066ZM21.9516 1.48345C10.6682 1.48345 1.48935 10.665 1.48935 21.9517V22.0485C1.48935 33.3352 10.6682 42.5168 21.9516 42.5168H22.0484C33.3318 42.5168 42.5106 33.3352 42.5106 22.0485V21.9517C42.5106 10.665 33.3318 1.48345 22.0484 1.48345H21.9516Z" fill="white"/>
<path id="Vector_2" d="M32.2759 16.1228V20.1378C31.5744 20.0692 30.6629 19.9098 29.6546 19.5404C28.338 19.0577 27.358 18.3977 26.7161 17.8867V26.0016L26.6997 25.9763C26.7102 26.1372 26.7161 26.301 26.7161 26.4664C26.7161 30.4963 23.4381 33.7768 19.4079 33.7768C15.3777 33.7768 12.0996 30.4963 12.0996 26.4664C12.0996 22.4365 15.3777 19.1545 19.4079 19.1545C19.8025 19.1545 20.1898 19.1858 20.5681 19.2469V23.2038C20.2047 23.0742 19.8145 23.0041 19.4079 23.0041C17.5 23.0041 15.9466 24.5565 15.9466 26.4664C15.9466 28.3763 17.5 29.9287 19.4079 29.9287C21.3157 29.9287 22.8691 28.3748 22.8691 26.4664C22.8691 26.3949 22.8676 26.3234 22.8632 26.2519V10.4824H26.874C26.8889 10.8221 26.9023 11.1648 26.9172 11.5044C26.944 12.1734 27.1823 12.8155 27.5978 13.3414C28.0848 13.9596 28.8042 14.6777 29.814 15.2513C30.7597 15.7861 31.6474 16.017 32.2759 16.1258V16.1228Z" fill="white"/>
</g>
</svg>
