<svg width="44" height="44" viewBox="0 0 44 44" fill="none" xmlns="http://www.w3.org/2000/svg">
<g id="yt">
<path id="Vector" d="M22 44.0066C9.86872 44.0066 0 34.135 0 22.0001C0 9.86528 9.86872 -0.00634766 22 -0.00634766C34.1313 -0.00634766 44 9.86528 44 22.0001C44 34.135 34.1313 44.0066 22 44.0066ZM22 1.48754C10.6931 1.48754 1.49345 10.6899 1.49345 22.0001C1.49345 33.3104 10.6931 42.5128 22 42.5128C33.3069 42.5128 42.5065 33.3104 42.5065 22.0001C42.5065 10.6899 33.3069 1.48754 22 1.48754Z" fill="white"/>
<path id="Vector_2" d="M35.3829 17.5942C35.2156 15.9793 34.8557 14.1941 33.531 13.2559C32.505 12.5284 31.1564 12.5015 29.8974 12.503C27.2361 12.5045 24.5733 12.5075 21.912 12.509C19.3522 12.5119 16.7924 12.5135 14.2327 12.5164C13.1633 12.5179 12.1239 12.4343 11.1308 12.8974C10.278 13.2948 9.61042 14.0506 9.20868 14.8917C8.65163 16.0614 8.53514 17.3865 8.46794 18.6802C8.34398 21.0361 8.35742 23.3979 8.50527 25.7523C8.6143 27.4703 8.89058 29.369 10.2183 30.464C11.3951 31.4335 13.0558 31.4814 14.5821 31.4829C19.4269 31.4873 24.2731 31.4918 29.1194 31.4948C29.7406 31.4963 30.3888 31.4844 31.022 31.4156C32.2676 31.2812 33.4548 30.9242 34.2553 30.0009C35.0633 29.0702 35.2709 27.775 35.3933 26.5485C35.692 23.5727 35.689 20.5685 35.3829 17.5942ZM19.1103 26.1706V17.8272L26.3326 21.9982L19.1103 26.1706Z" fill="white"/>
</g>
</svg>
